<svg width="100" height="100" viewBox="0 0 100 100" fill="none" xmlns="http://www.w3.org/2000/svg">
<g clip-path="url(#clip0_50_2)">
<path d="M4.47418 11H7.99418V88H4.47418V11ZM41.1042 11H45.7242L11.5142 47.08L47.3742 88H42.7542L7.00418 47.19L41.1042 11ZM43.0077 11H46.6377V88H43.0077V11ZM62.2577 88H44.8777V84.37H62.2577C67.391 84.37 72.0477 83.5633 76.2277 81.95C80.4077 80.3367 83.9277 77.99 86.7877 74.91C89.721 71.83 91.9577 68.1633 93.4977 63.91C95.111 59.5833 95.9177 54.78 95.9177 49.5C95.9177 44.22 95.111 39.4533 93.4977 35.2C91.9577 30.8733 89.721 27.17 86.7877 24.09C83.9277 21.01 80.4077 18.6633 76.2277 17.05C72.0477 15.4367 67.391 14.63 62.2577 14.63H44.8777V11H62.2577C69.7377 11 76.2644 12.6133 81.8377 15.84C87.4844 19.0667 91.8477 23.5767 94.9277 29.37C98.0077 35.09 99.5477 41.8 99.5477 49.5C99.5477 57.2 98.0077 63.9467 94.9277 69.74C91.8477 75.46 87.4844 79.9333 81.8377 83.16C76.2644 86.3867 69.7377 88 62.2577 88Z" fill="#13B8A7"/>
</g>
<defs>
<clipPath id="clip0_50_2">
<rect width="100" height="100" fill="white"/>
</clipPath>
</defs>
</svg>
