<svg width="100" height="100" viewBox="0 0 100 100" fill="none" xmlns="http://www.w3.org/2000/svg">
<g clip-path="url(#clip0_46_2)">
<path d="M-0.713634 88.91V9.81H45.6264V88.91H-0.713634ZM28.0564 74H44.4364V69.52H39.3264L25.3264 50.34L38.4164 32.91H43.5964V28.43H27.5664V32.91H32.9564L21.2664 48.66H13.8464V32.98H19.1664V28.5H2.92637V32.98H8.66637V69.52H2.92637V74H19.0964V69.52H13.8464V53.07H21.4064L33.4464 69.52H28.0564V74ZM49.945 88.91V9.81H100.695V88.91H49.945ZM97.195 51.18C97.195 44.6 95.165 39.1867 91.105 34.94C87.0917 30.6467 81.375 28.5 73.955 28.5H54.985V32.91H60.725V69.59H54.985V74H74.165C81.3517 74 86.975 71.8767 91.035 67.63C95.1417 63.3367 97.195 57.8533 97.195 51.18ZM91.735 51.25C91.735 56.8967 90.195 61.3767 87.115 64.69C84.0817 67.9567 79.6717 69.59 73.885 69.59H65.835V32.91H73.885C79.6717 32.91 84.0817 34.59 87.115 37.95C90.195 41.31 91.735 45.7433 91.735 51.25Z" fill="#13B8A7"/>
</g>
<defs>
<clipPath id="clip0_46_2">
<rect width="100" height="100" fill="white"/>
</clipPath>
</defs>
</svg>
